<?xml version="1.0" encoding="UTF-8" standalone="no"?>
<svg width="15px" height="16px" viewBox="0 0 15 16" version="1.1" xmlns="http://www.w3.org/2000/svg" xmlns:xlink="http://www.w3.org/1999/xlink">
    <!-- Generator: Sketch 3.7.1 (28215) - http://www.bohemiancoding.com/sketch -->
    <title>gear39 + Bound Copy 2</title>
    <desc>Created with Sketch.</desc>
    <defs></defs>
    <g id="Wedding-Packages" stroke="none" stroke-width="1" fill="none" fill-rule="evenodd">
        <g id="Pages-Edit-Wedding-Package" transform="translate(-22.000000, -142.000000)">
            <g id="gear39-+-Bound-Copy-2" transform="translate(15.000000, 136.000000)">
                <rect id="Bound-Copy-2" x="0" y="0" width="28" height="28"></rect>
                <g id="interface-(1)" transform="translate(7.000000, 6.000000)" fill="#9FBFCB">
                    <g id="Capa_1">
                        <g id="Group">
                            <path d="M13.0123379,0 L1.02365422,0 C0.472172888,0 0.0245815324,0.447591356 0.0245815324,0.999041257 L0.0245815324,14.9858389 C0.0245815324,15.5373202 0.472172888,15.9848802 1.02362279,15.9848802 L13.0123065,15.9848802 C13.5637878,15.9848802 14.0113477,15.5372888 14.0113477,14.9858389 L14.0113477,0.999041257 C14.0113792,0.447591356 13.5638193,0 13.0123379,0 L13.0123379,0 Z M13.0123379,14.9858389 L1.02365422,14.9858389 L1.02365422,0.999041257 L13.0123379,0.999041257 L13.0123379,14.9858389 L13.0123379,14.9858389 Z" id="Shape"></path>
                            <path d="M6.51847544,3.9962279 L10.5147033,3.9962279 C10.7894381,3.9962279 11.014224,3.77244794 11.014224,3.49670727 C11.014224,3.2209666 10.7894381,2.99718664 10.5147033,2.99718664 L6.51847544,2.99718664 C6.24273477,2.99718664 6.01895481,3.2209666 6.01895481,3.49670727 C6.01895481,3.77244794 6.24273477,3.9962279 6.51847544,3.9962279 L6.51847544,3.9962279 Z" id="Shape"></path>
                            <path d="M3.5212888,6.9933831 L10.5146719,6.9933831 C10.7894067,6.9933831 11.0141925,6.76960314 11.0141925,6.49386248 C11.0141925,6.21812181 10.7894067,5.99434185 10.5146719,5.99434185 L3.5212888,5.99434185 C3.24554813,5.99434185 3.02176817,6.21812181 3.02176817,6.49386248 C3.02176817,6.76960314 3.24554813,6.9933831 3.5212888,6.9933831 L3.5212888,6.9933831 Z" id="Shape"></path>
                            <path d="M3.5212888,9.99056974 L10.5146719,9.99056974 C10.7894067,9.99056974 11.0141925,9.76578389 11.0141925,9.49104912 C11.0141925,9.21631434 10.7894067,8.99152849 10.5146719,8.99152849 L3.5212888,8.99152849 C3.24554813,8.99152849 3.02176817,9.21631434 3.02176817,9.49104912 C3.02176817,9.76578389 3.24554813,9.99056974 3.5212888,9.99056974 L3.5212888,9.99056974 Z" id="Shape"></path>
                            <path d="M3.5212888,12.987725 L10.5146719,12.987725 C10.7894067,12.987725 11.0141925,12.7629391 11.0141925,12.4882043 C11.0141925,12.2134695 10.7894067,11.9886837 10.5146719,11.9886837 L3.5212888,11.9886837 C3.24554813,11.9886837 3.02176817,12.2134695 3.02176817,12.4882043 C3.02176817,12.7629391 3.24554813,12.987725 3.5212888,12.987725 L3.5212888,12.987725 Z" id="Shape"></path>
                        </g>
                    </g>
                </g>
            </g>
        </g>
    </g>
</svg>