<?xml version="1.0" encoding="UTF-8" standalone="no"?>
<svg width="16px" height="16px" viewBox="0 0 16 16" version="1.1" xmlns="http://www.w3.org/2000/svg" xmlns:xlink="http://www.w3.org/1999/xlink">
    <!-- Generator: Sketch 3.7.1 (28215) - http://www.bohemiancoding.com/sketch -->
    <title>shape</title>
    <desc>Created with Sketch.</desc>
    <defs></defs>
    <g id="Wedding-Packages" stroke="none" stroke-width="1" fill="none" fill-rule="evenodd">
        <g id="Pages-Edit-Wedding-Package" transform="translate(-21.000000, -623.000000)" fill="#9FBFCB">
            <g id="Group-5" transform="translate(15.000000, 617.000000)">
                <g id="shape" transform="translate(6.000000, 6.000000)">
                    <g id="Capa_1">
                        <g id="business">
                            <g id="Capa_1">
                                <g id="Layer_1_110_">
                                    <g id="Group">
                                        <path d="M5.98025532,5.42570213 L5.00697872,4.50587234 C5.12034043,4.29991489 5.19046809,4.0667234 5.19046809,3.81514894 C5.19046809,3.01787234 4.54468085,2.37208511 3.74706383,2.37208511 C2.94944681,2.37208511 2.3026383,3.01753191 2.3026383,3.81514894 C2.3026383,4.61276596 2.94944681,5.25889362 3.74706383,5.25889362 C4.02825532,5.25889362 4.28834043,5.17514894 4.51029787,5.03625532 L5.48221277,5.95506383 C5.6292766,5.76068085 5.79506383,5.5826383 5.98025532,5.42570213 L5.98025532,5.42570213 Z" id="Shape"></path>
                                        <path d="M10.0970213,5.3106383 L11.3902979,3.13429787 C11.517617,3.1707234 11.6497021,3.19693617 11.7882553,3.19693617 C12.587234,3.19693617 13.2330213,2.55080851 13.2330213,1.75319149 C13.2330213,0.955914894 12.587234,0.31012766 11.7882553,0.31012766 C10.9906383,0.31012766 10.3451915,0.955574468 10.3451915,1.75319149 C10.3451915,2.14910638 10.5048511,2.50689362 10.7628936,2.768 L9.47370213,4.93821277 C9.69531915,5.0386383 9.90434043,5.16391489 10.0970213,5.3106383 L10.0970213,5.3106383 Z" id="Shape"></path>
                                        <path d="M14.5572766,7.13259574 C13.9363404,7.13259574 13.410383,7.52714894 13.2064681,8.0772766 L11.4097021,7.89991489 C11.4097021,7.91353191 11.4117447,7.92646809 11.4117447,7.93974468 C11.4117447,8.17395745 11.3858723,8.4027234 11.339234,8.62365957 L13.1353191,8.80102128 C13.2439149,9.49004255 13.8372766,10.018383 14.5572766,10.018383 C15.3545532,10.018383 16,9.37293617 16,8.57565957 C16,7.7787234 15.3545532,7.13259574 14.5572766,7.13259574 L14.5572766,7.13259574 Z" id="Shape"></path>
                                        <path d="M9.59897872,12.8081702 L9.1972766,11.0529362 C8.97055319,11.1319149 8.7346383,11.1884255 8.48851064,11.2166809 L8.89089362,12.9722553 C8.42961702,13.213617 8.11131915,13.6905532 8.11131915,14.2474894 C8.11131915,15.044766 8.75676596,15.6898723 9.55574468,15.6898723 C10.3530213,15.6898723 10.9984681,15.0444255 10.9984681,14.2474894 C10.9994894,13.4648511 10.3758298,12.8313191 9.59897872,12.8081702 L9.59897872,12.8081702 Z" id="Shape"></path>
                                        <path d="M4.88748936,8.63659574 L2.65089362,9.38587234 C2.39285106,8.99165957 1.94859574,8.73021277 1.44306383,8.73021277 C0.645446809,8.73021277 0,9.376 0,10.1732766 C0,10.9715745 0.645446809,11.6173617 1.44306383,11.6173617 C2.24,11.6173617 2.88714894,10.9715745 2.88714894,10.1732766 C2.88714894,10.1399149 2.88,10.1092766 2.8772766,10.0765957 L5.12102128,9.3252766 C5.01991489,9.10706383 4.93957447,8.8772766 4.88748936,8.63659574 L4.88748936,8.63659574 Z" id="Shape"></path>
                                        <ellipse id="Oval" cx="8.11234043" cy="7.93974468" rx="2.47523404" ry="2.47523404"></ellipse>
                                    </g>
                                </g>
                            </g>
                        </g>
                    </g>
                </g>
            </g>
        </g>
    </g>
</svg>