<?xml version="1.0" encoding="UTF-8" standalone="no"?>
<svg width="15px" height="15px" viewBox="0 0 15 15" version="1.1" xmlns="http://www.w3.org/2000/svg" xmlns:xlink="http://www.w3.org/1999/xlink">
    <!-- Generator: Sketch 3.7.1 (28215) - http://www.bohemiancoding.com/sketch -->
    <title>gear39 + Bound Copy 2</title>
    <desc>Created with Sketch.</desc>
    <defs></defs>
    <g id="Wedding-Packages" stroke="none" stroke-width="1" fill="none" fill-rule="evenodd">
        <g id="Pages-Edit-Wedding-Package" transform="translate(-22.000000, -681.000000)">
            <g id="gear39-+-Bound-Copy-2" transform="translate(15.000000, 675.000000)">
                <g id="gear39" transform="translate(7.200000, 6.400000)" fill="#9FBFCB">
                    <g id="Capa_1">
                        <g id="Settings">
                            <path d="M14.3421859,6.39493829 C14.3194349,6.19269591 14.0836283,6.0407197 13.8797264,6.0407197 C13.2204848,6.0407197 12.6354914,5.65363271 12.3901561,5.05498885 C12.1395212,4.44183792 12.3011331,3.72676283 12.7924461,3.2760803 C12.9470989,3.13470335 12.9658885,2.89804015 12.8361814,2.73364461 C12.4987717,2.3051777 12.1152714,1.91814424 11.6965472,1.58271524 C11.5325799,1.45113457 11.2920089,1.46944238 11.149829,1.62687881 C10.7210409,2.10175762 9.95082825,2.2782513 9.35566394,2.02991822 C8.73630335,1.76937993 8.3457368,1.14177546 8.38395836,0.468080297 C8.39653829,0.256469888 8.2418855,0.0724817844 8.03091747,0.0479107807 C7.49356729,-0.0142394052 6.95150632,-0.0161665428 6.41255019,0.0436282528 C6.20399108,0.0666468401 6.04933829,0.246298885 6.05635093,0.455232714 C6.07979777,1.12228996 5.68452045,1.73892045 5.07131599,1.99009071 C4.48327138,2.23028699 3.71846543,2.05529219 3.29053383,1.58464238 C3.14910335,1.42961487 2.91244015,1.41055762 2.74766989,1.53897993 C2.31652639,1.8772461 1.92440743,2.26460074 1.58389294,2.68953457 C1.45108104,2.85473309 1.47062007,3.09417993 1.62682528,3.23630632 C2.12750632,3.68971896 2.28917175,4.41100372 2.02906171,5.03122082 C1.78072862,5.62253086 1.16672119,6.0036223 0.46379777,6.0036223 C0.235699628,5.99628848 0.0732312268,6.14938885 0.0482855019,6.35677026 C-0.0149888476,6.89722528 -0.01573829,7.44790483 0.0451806691,7.99274944 C0.0677710037,8.19584833 0.310750929,8.34648625 0.516901115,8.34648625 C1.14332788,8.3304803 1.74475539,8.71831673 1.99704981,9.33227063 C2.24854126,9.94542156 2.08687584,10.6600684 1.59481338,11.1111257 C1.44091004,11.2525026 1.421371,11.4887911 1.55107807,11.6531866 C1.88532937,12.0789234 2.26888327,12.4663316 2.68910632,12.8045442 C2.85393011,12.9373561 3.09375167,12.9186201 3.23662751,12.7611836 C3.66702156,12.2851271 4.43718067,12.1089546 5.02998959,12.3577695 C5.6509026,12.6175048 6.04146914,13.2450558 6.00324758,13.9191257 C5.99077472,14.1308431 6.14617695,14.3151524 6.35628848,14.3393487 C6.63117323,14.3714141 6.90771747,14.3874201 7.18501115,14.3874201 C7.44822602,14.3874201 7.71149442,14.3729665 7.97470929,14.3436848 C8.18332193,14.3206662 8.33786766,14.1410141 8.33085502,13.9317056 C8.30671227,13.265023 8.7026855,12.6483926 9.31508699,12.3976506 C9.90709294,12.1558483 10.668687,12.3328238 11.0966721,12.8029918 C11.2389056,12.9576981 11.4739093,12.9763807 11.6395896,12.8483866 C12.0699301,12.5109234 12.4612461,12.12389 12.8033665,11.6977784 C12.9361249,11.5329546 12.9173888,11.2931331 12.7603807,11.1510602 C12.2596996,10.6976476 12.0972312,9.97625576 12.3573413,9.35646691 C12.6018736,8.77302602 13.1930766,8.38128178 13.8289784,8.38128178 L13.917948,8.38358364 C14.1242052,8.40033903 14.3139747,8.24145725 14.338974,8.03091747 C14.4023554,7.48998067 14.4031048,6.9397829 14.3421859,6.39493829 L14.3421859,6.39493829 Z M7.2050855,9.60844015 C5.88189145,9.60844015 4.80558513,8.53213383 4.80558513,7.20893978 C4.80558513,5.88579926 5.88189145,4.80943941 7.2050855,4.80943941 C8.52822602,4.80943941 9.60453234,5.88579926 9.60453234,7.20893978 C9.60453234,8.53213383 8.52822602,9.60844015 7.2050855,9.60844015 L7.2050855,9.60844015 Z" id="Shape"></path>
                        </g>
                    </g>
                </g>
                <rect id="Bound-Copy-2" x="1.77635684e-15" y="0" width="28" height="28"></rect>
            </g>
        </g>
    </g>
</svg>