<?xml version="1.0" encoding="UTF-8" standalone="no"?>
<svg width="18px" height="17px" viewBox="0 0 18 17" version="1.1" xmlns="http://www.w3.org/2000/svg" xmlns:xlink="http://www.w3.org/1999/xlink">
    <!-- Generator: Sketch 3.7.1 (28215) - http://www.bohemiancoding.com/sketch -->
    <title>Shape</title>
    <desc>Created with Sketch.</desc>
    <defs>
        <path d="M16.6,28.1 L16.6,27.4 L11.707,27.4 L11.7,30.2 C11.7,30.977 12.323,31.6 13.1,31.6 L22.9,31.6 C23.677,31.6 24.3,30.977 24.3,30.2 L24.3,27.4 L19.4,27.4 L19.4,28.1 L16.6,28.1 L16.6,28.1 Z M23.6,21.8 L20.793,21.8 L20.793,20.4 L19.393,19 L16.593,19 L15.193,20.4 L15.193,21.8 L12.4,21.8 C11.63,21.8 11,22.43 11,23.2 L11,25.3 C11,26.077 11.623,26.7 12.4,26.7 L16.6,26.7 L16.6,25.3 L19.4,25.3 L19.4,26.7 L23.6,26.7 C24.37,26.7 25,26.07 25,25.3 L25,23.2 C25,22.43 24.37,21.8 23.6,21.8 L23.6,21.8 Z M19.4,21.8 L16.6,21.8 L16.6,20.4 L19.4,20.4 L19.4,21.8 L19.4,21.8 Z" id="path-1"></path>
        <filter x="-50%" y="-50%" width="200%" height="200%" filterUnits="objectBoundingBox" id="filter-2">
            <feOffset dx="0" dy="1" in="SourceAlpha" result="shadowOffsetOuter1"></feOffset>
            <feGaussianBlur stdDeviation="1" in="shadowOffsetOuter1" result="shadowBlurOuter1"></feGaussianBlur>
            <feColorMatrix values="0 0 0 0 0.607843137   0 0 0 0 0.607843137   0 0 0 0 0.607843137  0 0 0 0.5 0" type="matrix" in="shadowBlurOuter1"></feColorMatrix>
        </filter>
    </defs>
    <g id="Wedding-Landing-Page" stroke="none" stroke-width="1" fill="none" fill-rule="evenodd">
        <g id="Pages-Wedding" transform="translate(-509.000000, -154.000000)">
            <g id="folder-copy" transform="translate(500.000000, 136.000000)">
                <g id="Capa_1">
                    <g id="folder">
                        <g id="Shape">
                            <use fill="black" fill-opacity="1" filter="url(#filter-2)" xlink:href="#path-1"></use>
                            <use fill="#FFFFFF" fill-rule="evenodd" xlink:href="#path-1"></use>
                        </g>
                    </g>
                </g>
            </g>
        </g>
    </g>
</svg>