<?xml version="1.0" encoding="UTF-8" standalone="no"?>
<svg width="11px" height="10px" viewBox="0 0 11 10" version="1.1" xmlns="http://www.w3.org/2000/svg" xmlns:xlink="http://www.w3.org/1999/xlink">
    <!-- Generator: Sketch 3.7.1 (28215) - http://www.bohemiancoding.com/sketch -->
    <title>Shape</title>
    <desc>Created with Sketch.</desc>
    <defs>
        <path d="M4.03478261,4.08685714 L4.03478261,3.264 L4.59130435,3.264 L4.59130435,4.08685714 L5.42608696,4.08685714 L5.42608696,4.63542857 L4.59130435,4.63542857 L4.59130435,5.45828571 L4.03478261,5.45828571 L4.03478261,4.63542857 L3.2,4.63542857 L3.2,4.08685714 L4.03478261,4.08685714 L4.03478261,4.08685714 Z M4.86956522,5.73257143 L4.86956522,4.90971429 L5.70434783,4.90971429 L5.70434783,4.08685714 L7.65217391,4.08685714 L8.1613913,4.63542857 L9.04347826,4.63542857 C9.34956522,4.63542857 9.6,4.88228571 9.6,5.184 L9.6,8.47542857 C9.6,8.77714286 9.34956522,9.024 9.04347826,9.024 L4.59130435,9.024 C4.28521739,9.024 4.03478261,8.77714286 4.03478261,8.47542857 L4.03478261,5.73257143 L4.86956522,5.73257143 L4.86956522,5.73257143 Z M6.8173913,8.20114286 C7.5853913,8.20114286 8.20869565,7.58674286 8.20869565,6.82971429 C8.20869565,6.07268571 7.5853913,5.45828571 6.8173913,5.45828571 C6.0493913,5.45828571 5.42608696,6.07268571 5.42608696,6.82971429 C5.42608696,7.58674286 6.0493913,8.20114286 6.8173913,8.20114286 L6.8173913,8.20114286 Z M5.92695652,6.82971429 C5.92695652,7.3152 6.32486957,7.70742857 6.8173913,7.70742857 C7.30991304,7.70742857 7.70782609,7.3152 7.70782609,6.82971429 C7.70782609,6.34422857 7.30991304,5.952 6.8173913,5.952 C6.32486957,5.952 5.92695652,6.34422857 5.92695652,6.82971429 L5.92695652,6.82971429 Z" id="path-1"></path>
        <filter x="-50%" y="-50%" width="200%" height="200%" filterUnits="objectBoundingBox" id="filter-2">
            <feOffset dx="0" dy="1" in="SourceAlpha" result="shadowOffsetOuter1"></feOffset>
            <feGaussianBlur stdDeviation="1" in="shadowOffsetOuter1" result="shadowBlurOuter1"></feGaussianBlur>
            <feColorMatrix values="0 0 0 0 0   0 0 0 0 0   0 0 0 0 0  0 0 0 0.16 0" type="matrix" in="shadowBlurOuter1"></feColorMatrix>
        </filter>
    </defs>
    <g id="Wedding-Landing-Page" stroke="none" stroke-width="1" fill="none" fill-rule="evenodd">
        <g id="Wedding-Edit-Banner-Image" transform="translate(-276.000000, -327.000000)">
            <g id="Group-3" transform="translate(234.000000, 141.000000)">
                <g id="Group-2">
                    <g id="Group-4-Copy-3" transform="translate(16.000000, 159.000000)">
                        <g id="Group-8" transform="translate(24.800000, 24.800000)">
                            <g id="Shape">
                                <use fill="black" fill-opacity="1" filter="url(#filter-2)" xlink:href="#path-1"></use>
                                <use fill="#FFFFFF" fill-rule="evenodd" xlink:href="#path-1"></use>
                            </g>
                        </g>
                    </g>
                </g>
            </g>
        </g>
    </g>
</svg>