<?xml version="1.0" encoding="UTF-8" standalone="no"?>
<svg width="8px" height="5px" viewBox="0 0 8 5" version="1.1" xmlns="http://www.w3.org/2000/svg" xmlns:xlink="http://www.w3.org/1999/xlink">
    <!-- Generator: Sketch 39.1 (31720) - http://www.bohemiancoding.com/sketch -->
    <title>Fill 29</title>
    <desc>Created with Sketch.</desc>
    <defs></defs>
    <g id="Page-1" stroke="none" stroke-width="1" fill="none" fill-rule="evenodd">
        <g id="Image-Uploader" transform="translate(-100.000000, -176.000000)" fill="#FFFFFF">
            <g id="Group-2" transform="translate(70.000000, 130.000000)">
                <g id="Group-3">
                    <g id="Rectangle-5">
                        <g id="Group-5-Copy" transform="translate(27.000000, 42.000000)">
                            <path d="M6.66662073,4 C5.00006891,4 3.57659179,5.03655595 3,6.5 C3.57659179,7.96327178 5.00006891,9 6.66662073,9 C8.33334482,9 9.75664967,7.96327178 10.3334137,6.5 C9.75664967,5.03655595 8.33334482,4 6.66662073,4 L6.66662073,4 Z M6.66662073,8.16655182 C5.74669239,8.16655182 5.00006891,7.41992834 5.00006891,6.5 C5.00006891,5.57989939 5.74669239,4.83327591 6.66662073,4.83327591 C7.58672133,4.83327591 8.33334482,5.57989939 8.33334482,6.5 C8.33334482,7.41992834 7.58672133,8.16655182 6.66662073,8.16655182 L6.66662073,8.16655182 Z M6.66662073,5.49996555 C6.11328556,5.49996555 5.66658627,5.94666483 5.66658627,6.5 C5.66658627,7.05333517 6.11328556,7.50003445 6.66662073,7.50003445 C7.2199559,7.50003445 7.66665518,7.05333517 7.66665518,6.5 C7.66665518,5.94666483 7.2199559,5.49996555 6.66662073,5.49996555 L6.66662073,5.49996555 Z" id="Fill-29"></path>
                        </g>
                    </g>
                </g>
            </g>
        </g>
    </g>
</svg>