<?xml version="1.0" encoding="UTF-8" standalone="no"?>
<svg width="15px" height="18px" viewBox="0 0 15 18" version="1.1" xmlns="http://www.w3.org/2000/svg" xmlns:xlink="http://www.w3.org/1999/xlink">
    <!-- Generator: Sketch 3.7.1 (28215) - http://www.bohemiancoding.com/sketch -->
    <title>Group</title>
    <desc>Created with Sketch.</desc>
    <defs></defs>
    <g id="Wedding-Landing-Page" stroke="none" stroke-width="1" fill="none" fill-rule="evenodd">
        <g id="Pages-Wedding" transform="translate(-1388.000000, -280.000000)" fill="#9FBFCB">
            <g id="Group-2-Copy" transform="translate(1380.000000, 274.000000)">
                <g id="Group-3">
                    <g id="delete84" transform="translate(8.000000, 6.000000)">
                        <g id="Capa_1">
                            <g id="Group">
                                <path fill="#44C7F4" d="M12.1811832,2.09823005 L9.45196258,2.09823005 C9.31581774,0.919026142 8.31137704,0 7.09486876,0 C5.87839682,0 4.87410149,0.91898984 4.73795666,2.09823005 L2.00859066,2.09823005 C0.904094764,2.09823005 0.00563332885,2.99591051 0.00563332885,4.09909764 L0.00563332885,4.20176022 C0.00563332885,5.04480589 0.531168394,5.76638444 1.27149684,6.06039584 L1.27149684,15.5123597 C1.27149684,16.6155832 2.1700673,17.5132273 3.27449051,17.5132273 L10.9153197,17.5132273 C12.0197792,17.5132273 12.918277,16.6155106 12.918277,15.5123597 L12.918277,6.06043215 C13.6585691,5.76638444 14.1841405,5.04480589 14.1841405,4.20179652 L14.1841405,4.09913394 C14.1841405,2.99591051 13.2856064,2.09823005 12.1811832,2.09823005 L12.1811832,2.09823005 Z M7.09486876,0.948902841 C7.78675057,0.948902841 8.36425764,1.44424617 8.49204334,2.09823005 L5.69794858,2.09823005 C5.82569794,1.44420987 6.40324135,0.948902841 7.09486876,0.948902841 L7.09486876,0.948902841 Z M11.9682797,15.5123597 C11.9682797,16.092396 11.495807,16.5643608 10.9152833,16.5643608 L3.27445417,16.5643608 C2.69393054,16.5643608 2.2214578,16.0923597 2.2214578,15.5123597 L2.2214578,6.20262781 L11.9682797,6.20262781 L11.9682797,15.5123597 L11.9682797,15.5123597 Z M13.2341432,4.20176022 C13.2341432,4.78179655 12.7616705,5.25376127 12.1811469,5.25376127 L2.00859066,5.25376127 C1.42806703,5.25376127 0.955594293,4.78179655 0.955594293,4.20176022 L0.955594293,4.09909764 C0.955594293,3.51906131 1.42806703,3.04709659 2.00859066,3.04709659 L12.1811832,3.04709659 C12.7617068,3.04709659 13.2341796,3.51906131 13.2341796,4.09909764 L13.2341796,4.20176022 L13.2341432,4.20176022 Z" id="Shape"></path>
                                <path fill="#44C7F4" d="M4.54824068,15.3508513 C4.81057208,15.3508513 5.02322116,15.1383746 5.02322116,14.8764543 L5.02322116,9.53444244 C5.02322116,9.27248587 4.81053574,9.05997287 4.54824068,9.05997287 C4.28594562,9.05997287 4.0732602,9.27248587 4.0732602,9.53444244 L4.0732602,14.8764543 C4.07322385,15.1384472 4.28590927,15.3508513 4.54824068,15.3508513 L4.54824068,15.3508513 Z" id="Shape"></path>
                                <path fill="#44C7F4" d="M7.09486876,15.3508513 C7.35720016,15.3508513 7.56988558,15.1383746 7.56988558,14.8764543 L7.56988558,9.53444244 C7.56988558,9.27248587 7.35712747,9.05997287 7.09486876,9.05997287 C6.8325737,9.05997287 6.61988828,9.27248587 6.61988828,9.53444244 L6.61988828,14.8764543 C6.61988828,15.1384472 6.83253735,15.3508513 7.09486876,15.3508513 L7.09486876,15.3508513 Z" id="Shape"></path>
                                <path fill="#44C7F4" d="M9.64149684,15.3508513 C9.9037919,15.3508513 10.116441,15.1383746 10.116441,14.8764543 L10.116441,9.53444244 C10.116441,9.27248587 9.90375555,9.05997287 9.64149684,9.05997287 C9.37912909,9.05997287 9.16648001,9.27248587 9.16648001,9.53444244 L9.16648001,14.8764543 C9.16644367,15.1384472 9.37920178,15.3508513 9.64149684,15.3508513 L9.64149684,15.3508513 Z" id="Shape"></path>
                            </g>
                        </g>
                    </g>
                </g>
            </g>
        </g>
    </g>
</svg>