<?xml version="1.0" encoding="UTF-8" standalone="no"?>
<svg width="5px" height="8px" viewBox="0 0 5 8" version="1.1" xmlns="http://www.w3.org/2000/svg" xmlns:xlink="http://www.w3.org/1999/xlink">
    <!-- Generator: Sketch 3.7.1 (28215) - http://www.bohemiancoding.com/sketch -->
    <title>Shape</title>
    <desc>Created with Sketch.</desc>
    <defs></defs>
    <g id="Wedding-Venues" stroke="none" stroke-width="1" fill="none" fill-rule="evenodd">
        <g id="Pages-Wedding-Venues" transform="translate(-732.000000, -805.000000)" fill="#9B9B9B">
            <g id="Group-12" transform="translate(325.000000, 782.000000)">
                <g id="Not-pinned" transform="translate(407.000000, 19.000000)">
                    <g id="pin-copy-6" transform="translate(0.000000, 4.986651)">
                        <g id="Capa_1">
                            <path d="M4.29379552,3.63816176 C4.0844958,3.36242647 3.84795518,3.22463235 3.5840056,3.22463235 L3.5840056,1.07488235 C3.72260504,1.07488235 3.84268908,1.02170588 3.94385154,0.915352941 C4.04522409,0.808985294 4.09592437,0.682970588 4.09592437,0.537455882 C4.09592437,0.391867647 4.04522409,0.265926471 3.94385154,0.159558824 C3.84268908,0.0531911765 3.72261905,0 3.5840056,0 L1.02491597,0 C0.886260504,0 0.766316527,0.0531911765 0.665014006,0.159558824 C0.563697479,0.265926471 0.513053221,0.391852941 0.513053221,0.537455882 C0.513053221,0.683029412 0.563697479,0.808985294 0.665014006,0.915352941 C0.766316527,1.02170588 0.886302521,1.07488235 1.02491597,1.07488235 L1.02491597,3.22457353 C0.760994398,3.22457353 0.524439776,3.36242647 0.315154062,3.63814706 C0.105896359,3.91388235 0.001232493,4.22379412 0.001232493,4.56817647 C0.001232493,4.64094118 0.0265686275,4.70394118 0.0772268908,4.75710294 C0.127913165,4.81023529 0.187885154,4.83682353 0.25719888,4.83682353 L1.87266106,4.83682353 L2.17655462,6.87320588 C2.18985994,6.94880882 2.23252101,6.98654412 2.3044958,6.98654412 L2.30857143,6.98654412 C2.34042017,6.98654412 2.36788515,6.97466176 2.39051821,6.95091176 C2.41313725,6.92710294 2.42712885,6.89838235 2.43245098,6.86480882 L2.63634454,4.83683824 L4.35177871,4.83683824 C4.42107843,4.83683824 4.48113445,4.81025 4.53170868,4.75711765 C4.58242297,4.70397059 4.60778711,4.64097059 4.60778711,4.56819118 C4.60782913,4.22385294 4.50306723,3.91389706 4.29379552,3.63816176 L4.29379552,3.63816176 Z M1.92061625,3.09029412 C1.92061625,3.12944118 1.90864146,3.16160294 1.88462185,3.18683824 C1.86063025,3.21204412 1.82995798,3.22463235 1.79264706,3.22463235 C1.75536415,3.22463235 1.72467787,3.21205882 1.70067227,3.18683824 C1.67668067,3.16164706 1.66470588,3.12944118 1.66470588,3.09029412 L1.66470588,1.20930882 C1.66470588,1.17013235 1.67668067,1.13786765 1.70067227,1.11273529 C1.72467787,1.08757353 1.75536415,1.07497059 1.79264706,1.07497059 C1.82995798,1.07497059 1.86063025,1.08752941 1.88462185,1.11273529 C1.90862745,1.13791176 1.92061625,1.17013235 1.92061625,1.20930882 L1.92061625,3.09029412 L1.92061625,3.09029412 Z" id="Shape"></path>
                        </g>
                    </g>
                </g>
            </g>
        </g>
    </g>
</svg>