<?xml version="1.0" encoding="UTF-8" standalone="no"?>
<svg width="17px" height="17px" viewBox="0 0 17 17" version="1.1" xmlns="http://www.w3.org/2000/svg" xmlns:xlink="http://www.w3.org/1999/xlink">
    <!-- Generator: Sketch 3.8.3 (29802) - http://www.bohemiancoding.com/sketch -->
    <title>Fill 247</title>
    <desc>Created with Sketch.</desc>
    <defs>
        <path d="M14.9,29.4 C14.185,29.4 13.6065,29.985 13.6065,30.7 C13.6065,31.415 14.185,32 14.9,32 C15.615,32 16.2,31.415 16.2,30.7 C16.2,29.985 15.615,29.4 14.9,29.4 L14.9,29.4 Z M11,19 L11,20.3 L12.3,20.3 L14.64,25.2335 L13.7625,26.826 C13.6585,27.008 13.6,27.2225 13.6,27.45 C13.6,28.165 14.185,28.75 14.9,28.75 L22.7,28.75 L22.7,27.45 L15.173,27.45 C15.082,27.45 15.0105,27.3785 15.0105,27.2875 L15.03,27.2095 L15.615,26.15 L20.4575,26.15 C20.945,26.15 21.374,25.8835 21.595,25.4805 L23.922,21.262 C23.974,21.171 24,21.0605 24,20.95 C24,20.5925 23.7075,20.3 23.35,20.3 L13.7365,20.3 L13.1255,19 L11,19 L11,19 Z M21.4,29.4 C20.685,29.4 20.1065,29.985 20.1065,30.7 C20.1065,31.415 20.685,32 21.4,32 C22.115,32 22.7,31.415 22.7,30.7 C22.7,29.985 22.115,29.4 21.4,29.4 L21.4,29.4 Z" id="path-1"></path>
        <filter x="-50%" y="-50%" width="200%" height="200%" filterUnits="objectBoundingBox" id="filter-2">
            <feOffset dx="0" dy="1" in="SourceAlpha" result="shadowOffsetOuter1"></feOffset>
            <feGaussianBlur stdDeviation="1" in="shadowOffsetOuter1" result="shadowBlurOuter1"></feGaussianBlur>
            <feColorMatrix values="0 0 0 0 0.607843137   0 0 0 0 0.607843137   0 0 0 0 0.607843137  0 0 0 0.5 0" type="matrix" in="shadowBlurOuter1"></feColorMatrix>
        </filter>
    </defs>
    <g id="Romantic-Dining" stroke="none" stroke-width="1" fill="none" fill-rule="evenodd">
        <g id="Reservation-Romantic-Dining" transform="translate(-245.000000, -154.000000)">
            <g id="folder-copy-3" transform="translate(236.000000, 136.000000)">
                <g id="Capa_1">
                    <g id="folder">
                        <g id="Fill-247">
                            <use fill="black" fill-opacity="1" filter="url(#filter-2)" xlink:href="#path-1"></use>
                            <use fill="#FFFFFF" fill-rule="evenodd" xlink:href="#path-1"></use>
                        </g>
                    </g>
                </g>
            </g>
        </g>
    </g>
</svg>