<?xml version="1.0" encoding="UTF-8" standalone="no"?>
<svg width="18px" height="19px" viewBox="0 0 18 19" version="1.1" xmlns="http://www.w3.org/2000/svg" xmlns:xlink="http://www.w3.org/1999/xlink">
    <!-- Generator: Sketch 3.7.1 (28215) - http://www.bohemiancoding.com/sketch -->
    <title>Fill 49</title>
    <desc>Created with Sketch.</desc>
    <defs>
        <path d="M23,19.5 L22.25,19.5 L22.25,18 L20.75,18 L20.75,19.5 L14.75,19.5 L14.75,18 L13.25,18 L13.25,19.5 L12.5,19.5 C11.6675,19.5 11.0075,20.175 11.0075,21 L11,31.5 C11,32.325 11.6675,33 12.5,33 L23,33 C23.825,33 24.5,32.325 24.5,31.5 L24.5,21 C24.5,20.175 23.825,19.5 23,19.5 L23,19.5 Z M12.5,23.25 L23,23.25 L23,31.5 L12.5,31.5 L12.5,23.25 Z M14,24.75 L17.75,24.75 L17.75,28.5 L14,28.5 L14,24.75 Z" id="path-1"></path>
        <filter x="-50%" y="-50%" width="200%" height="200%" filterUnits="objectBoundingBox" id="filter-2">
            <feOffset dx="0" dy="1" in="SourceAlpha" result="shadowOffsetOuter1"></feOffset>
            <feGaussianBlur stdDeviation="1" in="shadowOffsetOuter1" result="shadowBlurOuter1"></feGaussianBlur>
            <feColorMatrix values="0 0 0 0 0.607843137   0 0 0 0 0.607843137   0 0 0 0 0.607843137  0 0 0 0.5 0" type="matrix" in="shadowBlurOuter1"></feColorMatrix>
        </filter>
    </defs>
    <g id="Wedding-Landing-Page" stroke="none" stroke-width="1" fill="none" fill-rule="evenodd">
        <g id="Pages-Wedding" transform="translate(-1039.000000, -153.000000)">
            <g id="folder-copy-3" transform="translate(1030.250000, 136.000000)">
                <g id="Capa_1">
                    <g id="folder">
                        <g id="Fill-49">
                            <use fill="black" fill-opacity="1" filter="url(#filter-2)" xlink:href="#path-1"></use>
                            <use fill="#FFFFFF" fill-rule="evenodd" xlink:href="#path-1"></use>
                        </g>
                    </g>
                </g>
            </g>
        </g>
    </g>
</svg>