<?xml version="1.0" encoding="UTF-8" standalone="no"?>
<svg width="12px" height="12px" viewBox="0 0 12 12" version="1.1" xmlns="http://www.w3.org/2000/svg" xmlns:xlink="http://www.w3.org/1999/xlink">
    <!-- Generator: Sketch 3.8.3 (29802) - http://www.bohemiancoding.com/sketch -->
    <title>Group</title>
    <desc>Created with Sketch.</desc>
    <defs></defs>
    <g id="Romantic-Dining" stroke="none" stroke-width="1" fill="none" fill-rule="evenodd">
        <g id="Reservation-Romantic-Dining" transform="translate(-480.000000, -242.000000)" fill="#9FBFCB">
            <g id="Input-Search-Copy-2" transform="translate(379.989240, 235.000000)">
                <g id="Input-Search" transform="translate(-0.000000, 0.000000)">
                    <g id="calendar70">
                        <g transform="translate(101.000000, 7.000000)">
                            <g id="Capa_1">
                                <g id="Group">
                                    <path d="M10.7739289,4.3200533 L10.7739289,2.69134674 L10.7739289,2.51294192 C10.7739289,1.57963767 9.97963395,0.819286136 8.99269037,0.793020863 L8.99269037,0.793237216 L8.99269037,1.20642848 L8.99269037,1.20681791 L8.99269037,1.62221597 L8.99269037,1.62303812 L8.99269037,1.85903614 C8.99269037,2.46478171 8.51751541,2.95754766 7.9335192,2.95754766 C7.34948127,2.95754766 6.87430631,2.46478171 6.87430631,1.85903614 L6.87430631,1.61749947 L6.87430631,1.20391878 L6.87430631,0.790338083 L3.8708734,0.790338083 L3.8708734,1.20391878 L3.8708734,1.61749947 L3.8708734,1.85903614 C3.8708734,2.46478171 3.39569844,2.95754766 2.81161878,2.95754766 C2.22758084,2.95754766 1.75244761,2.46478171 1.75244761,1.85903614 L1.75244761,1.62658631 L1.75244761,1.62515838 L1.75244761,1.20841892 L1.75244761,1.20802949 L1.75244761,0.7948815 L1.75244761,0.794448793 C0.781818872,0.837070365 0.00546609767,1.59045533 0.00546609767,2.51272557 L0.00546609767,2.69113038 L0.00546609767,4.31983695 L0.00546609767,10.0563544 C0.00546609767,11.1042825 0.827842579,11.9573198 1.83844476,11.9573198 L8.94086676,11.9573198 C9.95134376,11.9573198 10.773762,11.1042825 10.773762,10.0563544 L10.773762,4.3200533 L10.7739289,4.3200533 L10.7739289,4.3200533 Z M9.97625415,10.0565707 C9.97625415,10.648686 9.51180275,11.1301584 8.94086676,11.1301584 L1.83865339,11.1301584 C1.26775913,11.1301584 0.803349455,10.648686 0.803349455,10.0565707 L0.803349455,4.3200533 L9.97625415,4.3200533 L9.97625415,10.0565707 L9.97625415,10.0565707 Z" id="Shape"></path>
                                    <path d="M2.35079753,0.478097207 L2.35079753,0.790294813 L2.35079753,1.20387551 L2.35079753,1.6174562 L2.35079753,1.85899287 C2.35079753,2.1231168 2.55713229,2.33709008 2.81182741,2.33709008 C3.06643907,2.33709008 3.27285728,2.1231168 3.27285728,1.85899287 L3.27285728,1.6174562 L3.27285728,1.20387551 L3.27285728,0.790294813 L3.27285728,0.478097207 C3.272899,0.213973273 3.0664808,0 2.81186913,0 C2.55713229,0.000216353157 2.35079753,0.214189626 2.35079753,0.478097207 L2.35079753,0.478097207 Z" id="Shape"></path>
                                    <path d="M7.93364438,0.000216353157 C7.67894927,0.000216353157 7.47253106,0.214189626 7.47253106,0.47831356 L7.47253106,0.790511166 L7.47253106,1.20409186 L7.47253106,1.61767256 L7.47253106,1.85920922 C7.47253106,2.12333316 7.67890754,2.33730643 7.93364438,2.33730643 C8.18838122,2.33730643 8.39479943,2.12333316 8.39479943,1.85920922 L8.39479943,1.6174562 L8.39479943,1.20387551 L8.39479943,0.790294813 L8.39479943,0.478097207 C8.3944239,0.214189626 8.18821432,0.000216353157 7.93364438,0.000216353157 L7.93364438,0.000216353157 Z" id="Shape"></path>
                                </g>
                            </g>
                        </g>
                    </g>
                </g>
            </g>
        </g>
    </g>
</svg>