<?xml version="1.0"?><svg xmlns="http://www.w3.org/2000/svg" version="1.1" id="Layer_1" x="0px" y="0px" viewBox="-0 -0 514 514" style="enable-background:new 0 0 80 80;" width="512" height="512"><svg version="1.1" id="Layer_1" x="0" y="0" viewBox="0 0 80 80" style="enable-background:new 0 0 80 80;" width="512" height="512" fill="#858DFF"><style type="text/css">
	.st0{fill:#1E232D;}
</style><path class="st0" d="M39.1,1l-33,10.3v25.5c0,22.2,13.7,36.2,33,41.7c19.3-5.5,33-19.5,33-41.7V11.3L39.1,1z M30.6,29  c0-4.5,3.7-8.3,8.3-8.3s8.3,3.7,8.3,8.3v5.8h-4.5V29c0-2.1-1.7-3.8-3.8-3.8s-3.8,1.7-3.8,3.8v5.8h-4.5V29z M54.1,49.3  c0,2.5-2,4.5-4.5,4.5h-21c-2.5,0-4.5-2-4.5-4.5v-10h30V49.3z" fill="#858DFF" style="fill: rgb(133, 141, 255);"></path></svg></svg>