<?xml version="1.0" encoding="UTF-8"?>
<!DOCTYPE svg PUBLIC "-//W3C//DTD SVG 1.1//EN" "http://www.w3.org/Graphics/SVG/1.1/DTD/svg11.dtd">
<!-- Creator: CorelDRAW X5 -->
<svg xmlns="http://www.w3.org/2000/svg" xml:space="preserve" width="451px" height="599px" style="shape-rendering:geometricPrecision; text-rendering:geometricPrecision; image-rendering:optimizeQuality; fill-rule:evenodd; clip-rule:evenodd"
viewBox="0 0 451000 599423"
 xmlns:xlink="http://www.w3.org/1999/xlink">
 <defs>
  <style type="text/css">
   <![CDATA[
    .str0 {stroke:#373435;stroke-width:3293.87}
    .fil0 {fill:#FEFEFE}
    .fil2 {fill:#00904A}
    .fil1 {fill:black;fill-rule:nonzero}
   ]]>
  </style>
 </defs>
 <g id="Dinkes">
  <metadata id="CorelCorpID_0Corel-Layer"/>
  <g id="Ostiamare">
   <path class="fil0" d="M225500 4290c122171,0 221213,132265 221213,295422 0,163157 -99042,295422 -221213,295422 -122171,0 -221213,-132265 -221213,-295422 0,-163157 99042,-295422 221213,-295422z"/>
   <path class="fil1" d="M225500 173c62446,0 118904,33700 159702,88184 40548,54151 65628,128881 65628,211355 0,82474 -25080,157204 -65628,211355 -40798,54484 -97256,88184 -159702,88184 -62446,0 -118904,-33700 -159702,-88184 -40548,-54151 -65628,-128881 -65628,-211355 0,-82474 25080,-157204 65628,-211355 40798,-54484 97256,-88184 159702,-88184zm153140 93106c-39265,-52437 -93415,-84871 -153140,-84871 -59725,0 -113875,32434 -153140,84871 -39515,52770 -63956,125751 -63956,206433 0,80682 24441,153663 63956,206433 39265,52437 93415,84871 153140,84871 59725,0 113875,-32434 153140,-84871 39515,-52770 63956,-125751 63956,-206433 0,-80682 -24441,-153663 -63956,-206433z"/>
   <path class="fil2" d="M225696 59950c-122928,-395 -146249,77472 -148225,116209 0,107293 86564,89418 86564,277412l61662 0 61662 0c0,-187994 86564,-170119 86564,-277412 -1976,-38736 -25297,-116604 -148225,-116209z"/>
   <path class="fil1" d="M225696 64051c-48335,-155 -80811,11951 -102469,28931 -31910,25017 -40459,60775 -41643,83176l4 0c0,44909 15679,67395 33541,93013 24213,34726 52292,75007 53006,180282l57561 0 57561 0c714,-105275 28793,-145556 53006,-180282 17862,-25618 33541,-48103 33541,-93013l4 0c-1184,-22401 -9733,-58159 -41643,-83176 -21658,-16980 -54134,-29086 -102469,-28931zm-107519 22466c22956,-17998 57095,-30830 107519,-30668 50424,-162 84563,12671 107519,30668 34442,27003 43585,65468 44807,89432l16 209c0,47437 -16385,70937 -35052,97709 -23827,34173 -51511,73876 -51511,179703l0 4117 -4117 0 -61662 0 -61662 0 -4117 0 0 -4117c0,-105826 -27684,-145530 -51511,-179703 -18667,-26772 -35052,-50272 -35052,-97709l16 -209c1223,-23965 10365,-62430 44807,-89432z"/>
   <path class="fil1" d="M225696 61103c-22586,0 -70374,8401 -104300,34154 -21456,16287 -37296,39623 -37296,72338 0,37903 30558,67855 64007,100639 29683,29094 61571,60354 77590,101869 16019,-41516 47907,-72776 77590,-101869 33448,-32784 64007,-62736 64007,-100639 0,-32715 -15840,-56051 -37296,-72338 -33926,-25753 -81714,-34154 -104300,-34154zm-109254 27624c35620,-27038 85637,-35859 109254,-35859 23617,0 73634,8820 109254,35859 23343,17720 40577,43151 40577,78868 0,41329 -31741,72440 -66483,106494 -31633,31005 -67018,64526 -80593,109863l-5509 0c-13575,-45338 -48960,-78858 -80593,-109863 -34743,-34053 -66483,-65164 -66483,-106494 0,-35717 17234,-61148 40577,-78868z"/>
   <path class="fil0" d="M225696 36817c30859,39 48568,27672 48557,35278 8609,-5 39058,5918 48557,35278 9499,29361 -11309,54742 -18547,57082 2665,8186 6442,38975 -18547,57082 -24988,18107 -55557,6160 -60019,0 -6962,5064 -35077,18170 -60019,0 -24942,-18170 -23027,-50935 -18547,-57082 -6968,-5056 -28120,-27745 -18547,-57082 9573,-29336 41326,-37639 48557,-35278 2656,-8189 17697,-35318 48557,-35278z"/>
   <path class="fil1" d="M225696 35170l11 0 0 7c15926,23 28445,7152 36978,15253 7637,7251 12119,15434 13033,20070 6257,361 19098,2979 30362,11163 7614,5532 14536,13597 18292,25209l7 7 3 10 -4 1c4895,15150 1985,29253 -3081,39868 -4534,9500 -10932,16291 -15062,18597 1589,6061 3066,19081 -1238,32329 -2909,8953 -8439,18028 -18317,25185l-3 -4 -6 4 0 7c-12894,9339 -27211,10929 -38878,9390 -10442,-1377 -18878,-5360 -22345,-8571 -5274,3385 -17200,8814 -31127,8814 -9406,0 -19743,-2457 -29610,-9645l-13 -6 -8 -6 2 -2c-12862,-9379 -18797,-22500 -20938,-34067 -1915,-10350 -732,-19602 1252,-23892 -4848,-3969 -13697,-13635 -18002,-26884 -2908,-8949 -3768,-19536 11,-31126l-2 -1 3 -10 7 -13c4944,-15141 15592,-24845 25934,-30457 9257,-5023 18426,-6757 23118,-6193 2280,-5843 8739,-17243 20002,-25426 7611,-5530 17418,-9619 29619,-9603l0 -7zm11 3288l0 7 -11 0 0 -7c-11398,-14 -20568,3812 -27689,8986 -11556,8396 -17720,20270 -19304,25154l-475 1465 -1487 -372 -1 0 -109 -32c-3310,-1080 -12470,408 -22104,5636 -9729,5279 -19739,14386 -24373,28565l2 1 -3 10 -7 13c-3537,10840 -2733,20741 -15,29107 4413,13583 13805,23117 17964,26135l1282 930 -877 1315 0 1 -45 51c-2051,2815 -3465,11988 -1470,22768 2015,10887 7587,23226 19649,32017l13 6 8 6 -1 2c9205,6702 18867,8993 27668,8993 14285,0 26255,-5986 30410,-9008l1305 -949 972 1296 1 1 19 19c2045,2822 10329,7004 21189,8436 10975,1448 24432,-39 36524,-8798l3 4 6 -4 0 -7c9233,-6690 14402,-15172 17120,-23538 4413,-13583 2419,-26818 829,-31704l-546 -1676 1677 -419c3331,-1138 9806,-7703 14494,-17526 4770,-9994 7516,-23254 2924,-37457l-7 -7 -3 -10 4 -1c-3508,-10838 -9976,-18371 -17093,-23542 -11560,-8399 -24762,-10593 -29897,-10590l-1647 1 0 -1642 0 -1 7 0c4,-3483 -4242,-11736 -12192,-19284 -8029,-7623 -19789,-14331 -34713,-14353z"/>
   <path class="fil2" d="M147873 268058c2757,-37300 24463,-51069 38670,-59373 14207,-8303 29331,-16950 39152,-27909 9822,10959 24945,19606 39152,27909 14207,8303 35914,22073 38670,59373l-1036 2222 0 0 0 0c-29931,31611 -62779,65716 -76787,112498 -14008,-46782 -46856,-80888 -76787,-112498l0 0 -1036 -2221z"/>
   <path class="fil1" d="M143772 267768c1451,-19640 7950,-33155 15974,-42876 8014,-9708 17347,-15451 24723,-19761l1458 -852c13524,-7897 27692,-16172 36713,-26238l3056 -3409 3056 3409c9021,10066 23190,18340 36713,26238l1458 852c7376,4310 16709,10053 24723,19761 8024,9721 14523,23236 15974,42876l-370 2026 -1036 2222 -2483 -549 1727 1643 -1586 1675c-40889,43169 -58886,60648 -78283,117467 -18123,-56069 -38114,-75285 -78068,-117467l-368 -388 -848 0 -1110 -2380 -1036 -2221 -386 -2026zm22311 -37665c-6932,8398 -12579,23083 -14027,40185l281 602 1135 1198c27306,28829 56682,56884 72225,97899 15543,-41015 44919,-68478 72225,-97307l1103 -1165 310 -664c-1451,-17086 -7096,-32356 -14024,-40749 -7080,-8577 -15704,-13872 -22535,-17864l-1458 -852c-12654,-7390 -25851,-15097 -35620,-24686 -9768,9589 -22966,17297 -35620,24686l-1458 852c-6831,3992 -15456,9287 -22535,17864z"/>
   <polygon class="fil2 str0" points="204283,59308 247104,59308 247104,87306 275102,87306 275102,130127 247104,130127 247104,158125 204283,158125 204283,130127 176285,130127 176285,87306 204283,87306 "/>
   <path class="fil1" d="M91947 460429l7904 11288c1565,2235 2643,3970 3221,5201 584,1227 883,2478 898,3760 16,1282 -265,2547 -845,3816 -574,1265 -1477,2327 -2693,3179 -1322,925 -2786,1422 -4388,1485 -1606,57 -3111,-330 -4515,-1159 702,2066 777,3992 218,5755 -561,1774 -1659,3229 -3289,4370 -1282,898 -2739,1476 -4374,1730 -1628,249 -3172,115 -4618,-411 -1446,-526 -2786,-1488 -4020,-2887 -762,-878 -2434,-3126 -5006,-6743l-6730 -9612 28237 -19772zm-705 8998l-6529 4571 2615 3734c1556,2222 2556,3580 2999,4073 793,895 1667,1429 2617,1597 950,168 1880,-72 2794,-711 874,-612 1419,-1346 1628,-2208 205,-869 32,-1815 -519,-2840 -330,-612 -1434,-2259 -3313,-4941l-2292 -3274zm-11229 7863l-7547 5285 3692 5273c1441,2058 2405,3323 2910,3792 745,742 1610,1165 2574,1284 971,114 1962,-179 2961,-878 848,-594 1417,-1306 1724,-2128 302,-828 321,-1724 48,-2688 -274,-965 -1325,-2746 -3139,-5337l-3222 -4602zm3927 31495l25210 -23509 4751 5095 -9920 9250 9300 9973 9920 -9250 4746 5089 -25210 23509 -4746 -5089 11023 -10279 -9300 -9973 -11023 10280 -4751 -5095zm48556 44242l-5970 -4665 2451 -8026 -10859 -8484 -7062 4424 -5818 -4546 31803 -18897 5800 4531 -10344 35662zm-1705 -18636l4132 -13006 -11545 7215 7412 5791zm5174 20698l16183 -30436 6144 3267 -7185 13514 19601 -6912 8263 4394 -17763 5763 2203 25005 -7951 -4227 -766 -18732 -7694 2435 -4891 9198 -6144 -3267zm45416 19816l6928 -27786 -9921 -2474 1412 -5662 26579 6627 -1412 5661 -9898 -2468 -6928 27786 -6760 -1685zm20798 3880l3603 -34282 6920 727 -3603 34282 -6920 -727zm26955 2415l-5986 -33947 6861 -1210 2355 13358 13429 -2368 -2355 -13358 6853 -1208 5986 33947 -6853 1208 -2617 -14844 -13429 2368 2617 14844 -6860 1210zm22182 -38106l6496 -2494 6690 17428c1061,2765 1834,4531 2305,5288 783,1212 1856,2013 3202,2407 1357,399 2940,247 4753,-449 1843,-708 3093,-1617 3739,-2733 649,-1109 855,-2253 622,-3419 -228,-1176 -837,-3031 -1815,-5579l-6834 -17803 6496 -2494 6489 16904c1484,3866 2359,6660 2619,8391 261,1731 131,3320 -390,4783 -524,1456 -1454,2819 -2777,4075 -1331,1259 -3275,2375 -5823,3353 -3072,1179 -5538,1722 -7399,1620 -1862,-102 -3467,-543 -4823,-1321 -1356,-777 -2420,-1736 -3190,-2868 -1135,-1679 -2389,-4319 -3772,-7922l-6589 -17166zm37028 10469l5391 -4155c1548,1720 3134,2698 4761,2940 1616,239 3324,-194 5121,-1317 1899,-1187 3084,-2486 3538,-3895 465,-1407 361,-2648 -311,-3724 -434,-694 -1004,-1152 -1714,-1380 -708,-239 -1679,-218 -2915,61 -841,185 -2683,749 -5523,1672 -3654,1195 -6477,1615 -8464,1267 -2801,-483 -4924,-1882 -6370,-4197 -931,-1490 -1377,-3143 -1345,-4970 36,-1820 637,-3569 1798,-5240 1171,-1669 2871,-3204 5117,-4608 3676,-2297 6934,-3216 9796,-2771 2859,456 5172,1992 6948,4621l-5739 3946c-1192,-1347 -2413,-2089 -3651,-2223 -1243,-141 -2693,310 -4353,1348 -1715,1072 -2846,2261 -3370,3573 -346,841 -280,1642 192,2398 434,694 1096,1103 1988,1228 1133,162 3352,-315 6645,-1436 3298,-1114 5859,-1740 7685,-1878 1830,-131 3522,184 5091,954 1563,774 2920,2084 4073,3928 1046,1674 1566,3536 1543,5575 -18,2046 -651,3956 -1910,5727 -1255,1778 -3158,3459 -5696,5045 -3696,2309 -7066,3232 -10114,2761 -3048,-471 -5789,-2222 -8212,-5251zm58356 -29117l-5718 4970 -7411 -3937 -10400 9041 2995 7776 -5573 4844 -12481 -34825 5555 -4828 33033 16959zm-18619 -1882l-11979 -6538 4880 12709 7099 -6171zm-5546 -23364l8177 -9745c1842,-2195 3411,-3728 4719,-4600 1755,-1168 3681,-1815 5772,-1935 2091,-132 4224,223 6393,1058 2170,847 4491,2302 6969,4381 2170,1821 3819,3665 4939,5527 1366,2267 2132,4513 2287,6739 130,1681 -216,3517 -1033,5514 -610,1489 -1747,3218 -3402,5191l-8414 10028 -26406 -22157zm8942 -1580l17485 14672 3338 -3978c1248,-1488 2071,-2631 2456,-3439 507,-1041 748,-2065 711,-3070 -37,-1005 -504,-2183 -1380,-3537 -881,-1347 -2344,-2888 -4385,-4601 -2041,-1713 -3758,-2839 -5151,-3401 -1399,-556 -2676,-768 -3827,-634 -1162,136 -2265,614 -3316,1429 -796,600 -2099,1989 -3925,4166l-2007 2391zm55811 -29415l-4015 6425 -8238 -1598 -7302 11686 5137 6561 -3913 6262 -22118 -29654 3900 -6242 36548 6560zm-18356 3644l-13367 -2750 8383 10727 4985 -7977z"/>
  </g>
 </g>
</svg>
