<?xml version="1.0" encoding="UTF-8" standalone="no"?>
<svg width="39px" height="39px" viewBox="0 0 39 39" version="1.1" xmlns="http://www.w3.org/2000/svg" xmlns:xlink="http://www.w3.org/1999/xlink">
    <!-- Generator: Sketch 39 (31667) - http://www.bohemiancoding.com/sketch -->
    <title>Group 15</title>
    <desc>Created with Sketch.</desc>
    <defs>
        <linearGradient x1="50%" y1="100%" x2="50%" y2="0%" id="linearGradient-1">
            <stop stop-color="#F2F7F9" offset="0%"></stop>
            <stop stop-color="#FFFFFF" offset="100%"></stop>
        </linearGradient>
        <path d="M17.4067797,34.8064516 C27.0202786,34.8064516 34.8135593,27.014762 34.8135593,17.4032258 C34.8135593,7.7916896 27.0202786,0 17.4067797,0 C7.79328071,0 2.20268248e-13,7.7916896 2.20268248e-13,17.4032258 C2.20268248e-13,27.014762 7.79328071,34.8064516 17.4067797,34.8064516 Z" id="path-2"></path>
    </defs>
    <g id="Romantic-Dining" stroke="none" stroke-width="1" fill="none" fill-rule="evenodd">
        <g id="Reservation-Romantic-Dining-Add-ons-Update-1" transform="translate(-1228.000000, -309.000000)">
            <g id="Group-9" transform="translate(1117.000000, 268.000000)">
                <g id="browser" transform="translate(61.000000, 0.000000)">
                    <g id="Capa_1">
                        <g id="Group-15" transform="translate(52.000000, 43.000000)">
                            <g id="Oval-143-Copy">
                                <use stroke="#F8FAFB" stroke-width="4" fill="url(#linearGradient-1)" fill-rule="evenodd" xlink:href="#path-2"></use>
                                <use stroke="#9FBFCB" stroke-width="2" xlink:href="#path-2"></use>
                            </g>
                            <path d="M19.6077482,18.6622391 L19.6077482,13.4648956 L14.4430993,13.4648956 L14.4430993,18.6622391 L11,18.6622391 L17.0254237,24.7258065 L23.0508475,18.6622391 L19.6077482,18.6622391 Z M11,10 L11,11.7324478 L23.0508475,11.7324478 L23.0508475,10 L11,10 L11,10 Z" id="Shape-Copy-3" fill="#9FBFCB" transform="translate(17.025424, 17.362903) rotate(-180.000000) translate(-17.025424, -17.362903) "></path>
                        </g>
                    </g>
                </g>
            </g>
        </g>
    </g>
</svg>