<?xml version="1.0" encoding="UTF-8" standalone="no"?>
<svg width="80px" height="80px" viewBox="0 0 80 80" version="1.1" xmlns="http://www.w3.org/2000/svg" xmlns:xlink="http://www.w3.org/1999/xlink">
    <!-- Generator: Sketch 39 (31667) - http://www.bohemiancoding.com/sketch -->
    <title>Group 13</title>
    <desc>Created with Sketch.</desc>
    <defs>
        <linearGradient x1="50%" y1="0%" x2="50%" y2="100%" id="linearGradient-1">
            <stop stop-color="#E8F0F4" stop-opacity="0.1" offset="0%"></stop>
            <stop stop-color="#FFFFFF" offset="100%"></stop>
        </linearGradient>
        <linearGradient x1="50%" y1="100%" x2="50%" y2="0%" id="linearGradient-2">
            <stop stop-color="#E8F0F4" stop-opacity="0.1" offset="0%"></stop>
            <stop stop-color="#FFFFFF" offset="100%"></stop>
        </linearGradient>
    </defs>
    <g id="Romantic-Dining" stroke="none" stroke-width="1" fill="none" fill-rule="evenodd">
        <g id="Reservation-Romantic-Dining-Add-ons-Update-1" transform="translate(-787.000000, -265.000000)">
            <g id="Group-7" transform="translate(727.000000, 265.000000)">
                <g id="pencil-(1)" transform="translate(60.000000, 0.000000)">
                    <g id="Capa_1">
                        <g id="Group">
                            <g id="Group-13">
                                <path d="M39.0146921,23.4043312 L34.2106157,28.2084076 C33.9617834,28.4570701 33.6356688,28.5814013 33.309724,28.5814013 C32.9837792,28.5814013 32.6576645,28.4570701 32.4088323,28.2084076 C31.9113376,27.7107431 31.9113376,26.9042887 32.4088323,26.4067941 L36.312017,22.5036093 L32.905138,19.0967304 L29.0019533,22.9999151 C28.753121,23.2485775 28.4270064,23.3729087 28.1010616,23.3729087 C27.7751168,23.3729087 27.4490021,23.2485775 27.2001699,22.9999151 C26.7026752,22.5022505 26.7026752,21.6957962 27.2001699,21.1983015 L31.1033546,17.2951168 L27.6966454,13.8882378 L23.7932909,17.7914225 C23.5444586,18.0400849 23.2183439,18.1644161 22.8923992,18.1644161 C22.5664544,18.1644161 22.2403397,18.0400849 21.9915074,17.7914225 C21.4940127,17.293758 21.4940127,16.4873036 21.9915074,15.9898089 L25.894862,12.0866242 L16.8874735,3.07872611 L3.07566879,16.8905308 L23.4012739,37.215966 C23.8987686,37.7136306 23.8987686,38.5200849 23.4012739,39.0175796 L25.2027176,40.8188535 L40.8161359,25.2054352 L39.0146921,23.4043312 L39.0146921,23.4043312 Z M17.1879406,17.190828 C16.4659023,17.9126964 15.506242,18.3101486 14.4856051,18.3103185 C13.4647983,18.3101486 12.505138,17.9126964 11.7832696,17.1909979 C10.2933333,15.7008917 10.2933333,13.2762633 11.7830998,11.786327 C12.5049682,11.0644586 13.4647983,10.6670064 14.4854352,10.6670064 C15.506242,10.6668365 16.4659023,11.0644586 17.1877707,11.7861571 C18.677707,13.2762633 18.677707,15.7007219 17.1879406,17.190828 L17.1879406,17.190828 Z" id="Shape" fill="url(#linearGradient-1)"></path>
                                <path d="M42.6177495,56.4324416 L62.9431847,76.7580467 L76.7549894,62.946242 L67.7472611,53.9386837 L63.8439066,57.8418684 C63.5950743,58.0905308 63.2689597,58.214862 62.9430149,58.214862 C62.6170701,58.214862 62.2909554,58.0905308 62.0421231,57.8418684 C61.5446285,57.3442038 61.5446285,56.5377495 62.0421231,56.0402548 L65.9454777,52.1370701 L62.5385987,48.7301911 L58.635414,52.6333758 C58.3865817,52.8820382 58.0604671,53.0063694 57.7345223,53.0063694 C57.4085775,53.0063694 57.0824628,52.8820382 56.8336306,52.6333758 C56.3361359,52.1357113 56.3361359,51.3292569 56.8336306,50.8317622 L60.7368153,46.9285775 L57.3299363,43.5216985 L53.4267516,47.4248832 C53.1779193,47.6735456 52.8518047,47.7978769 52.5258599,47.7978769 C52.1999151,47.7978769 51.8738004,47.6735456 51.6249682,47.4248832 C51.1274735,46.9272187 51.1274735,46.1207643 51.6249682,45.6232696 L56.4290446,40.8191932 L54.6276008,39.0177495 L39.0141826,54.6313376 L40.8156263,56.4326115 C41.3136306,55.9351168 42.1200849,55.9351168 42.6177495,56.4324416 L42.6177495,56.4324416 Z M62.6427176,62.6459448 C63.3647558,61.9240764 64.3244161,61.5266242 65.3452229,61.5266242 C66.3658599,61.5266242 67.3255202,61.9240764 68.0473885,62.6457749 C69.5373248,64.1358811 69.5373248,66.5605096 68.0475584,68.0504459 C67.3255202,68.7723142 66.3658599,69.1699363 65.3452229,69.1699363 C64.3244161,69.1699363 63.3647558,68.7723142 62.6428875,68.0506157 C61.1529512,66.5605096 61.1529512,64.136051 62.6427176,62.6459448 L62.6427176,62.6459448 Z" id="Shape" fill="url(#linearGradient-2)"></path>
                                <path d="M14.4856051,10.6670064 C13.4647983,10.6670064 12.5049682,11.0644586 11.7830998,11.786327 C10.2933333,13.2762633 10.2933333,15.7008917 11.7832696,17.1909979 C12.505138,17.9126964 13.4647983,18.3101486 14.4856051,18.3103185 C15.506242,18.3101486 16.4659023,17.9126964 17.1879406,17.190828 C18.677707,15.7008917 18.677707,13.2762633 17.1877707,11.7861571 C16.4659023,11.0644586 15.506242,10.6668365 14.4856051,10.6670064 L14.4856051,10.6670064 Z M15.386327,15.3892144 C15.1456476,15.6298938 14.8256476,15.7623779 14.4854352,15.7623779 C14.1450531,15.7623779 13.8250531,15.6298938 13.5845435,15.3893843 C13.0878981,14.892569 13.0878981,14.0842463 13.5843737,13.5877707 C13.8250531,13.3470913 14.1450531,13.2147771 14.4854352,13.2147771 C14.8256476,13.2147771 15.1456476,13.3470913 15.3861571,13.5876008 C15.8828025,14.0844161 15.8828025,14.8927389 15.386327,15.3892144 L15.386327,15.3892144 Z" id="Shape" fill="#9FBFCB"></path>
                                <path d="M65.3452229,69.1699363 C66.3658599,69.1699363 67.3255202,68.7723142 68.0475584,68.0504459 C69.5373248,66.5605096 69.5373248,64.1358811 68.0473885,62.6457749 C67.3255202,61.9240764 66.3658599,61.5266242 65.3452229,61.5266242 C64.3244161,61.5266242 63.3647558,61.9240764 62.6427176,62.6459448 C61.1529512,64.1358811 61.1529512,66.5605096 62.6428875,68.0506157 C63.3647558,68.7723142 64.324586,69.1699363 65.3452229,69.1699363 L65.3452229,69.1699363 Z M64.4443312,64.4475584 C64.6850106,64.206879 65.0050106,64.0745648 65.3453928,64.0745648 C65.6856051,64.0745648 66.0056051,64.206879 66.2461146,64.4473885 C66.7427601,64.9442038 66.7427601,65.7525265 66.2462845,66.2490021 C66.0056051,66.4896815 65.6856051,66.6221656 65.3453928,66.6221656 C65.0050106,66.6221656 64.6850106,66.4896815 64.4445011,66.249172 C63.9478556,65.7523567 63.9478556,64.944034 64.4443312,64.4475584 L64.4443312,64.4475584 Z" id="Shape" fill="#9FBFCB"></path>
                                <path d="M23.4012739,37.215966 L3.07566879,16.8905308 L16.8874735,3.07872611 L25.8950318,12.0864544 L21.9916773,15.9896391 C21.4941826,16.4873036 21.4941826,17.293758 21.9916773,17.7912527 C22.2405096,18.0399151 22.5666242,18.1642463 22.892569,18.1642463 C23.2185138,18.1642463 23.5446285,18.0399151 23.7934607,17.7912527 L27.6968153,13.8880679 L31.1035244,17.2949469 L27.2003397,21.1981316 C26.702845,21.6957962 26.702845,22.5022505 27.2003397,22.9997452 C27.449172,23.2484076 27.7752866,23.3727389 28.1012314,23.3727389 C28.4271762,23.3727389 28.7532909,23.2484076 29.0021231,22.9997452 L32.9053079,19.0965605 L36.3121868,22.5034395 L32.4090021,26.4066242 C31.9115074,26.9042887 31.9115074,27.7107431 32.4090021,28.2082378 C32.6578344,28.4569002 32.983949,28.5812314 33.3098938,28.5812314 C33.6358386,28.5812314 33.9619533,28.4569002 34.2107856,28.2082378 L39.014862,23.4041614 C39.5121868,22.9064968 39.5121868,22.1000425 39.014862,21.6025478 L17.7883652,0.376390658 C17.2907006,-0.120934183 16.4842463,-0.120934183 15.9867516,0.376390658 L0.373333333,15.9898089 C-0.124161359,16.4874735 -0.124161359,17.2939278 0.373333333,17.7914225 L21.5996603,39.0177495 C21.8484926,39.2664119 22.1746072,39.3907431 22.500552,39.3907431 C22.8264968,39.3907431 23.1526115,39.2664119 23.4014437,39.0177495 C23.8987686,38.5200849 23.8987686,37.7136306 23.4012739,37.215966 L23.4012739,37.215966 Z" id="Shape" fill="#9FBFCB"></path>
                                <path d="M58.2311677,40.8190234 C57.7335032,40.3216985 56.9272187,40.3216985 56.4295541,40.8190234 L51.6254777,45.6230998 C51.127983,46.1207643 51.127983,46.9272187 51.6254777,47.4247134 C51.87431,47.6733758 52.2004246,47.797707 52.5263694,47.797707 C52.8523142,47.797707 53.1784289,47.6733758 53.4272611,47.4247134 L57.3304459,43.5215287 L60.7373248,46.9284076 L56.8341401,50.8315924 C56.3366454,51.3292569 56.3366454,52.1357113 56.8341401,52.6332059 C57.0829724,52.8818684 57.409087,53.0061996 57.7350318,53.0061996 C58.0609766,53.0061996 58.3870913,52.8818684 58.6359236,52.6332059 L62.5391083,48.7300212 L65.9459873,52.1369002 L62.0426327,56.0400849 C61.545138,56.5377495 61.545138,57.3442038 62.0426327,57.8416985 C62.291465,58.0903609 62.6175796,58.2146921 62.9435244,58.2146921 C63.2694692,58.2146921 63.5955839,58.0903609 63.8444161,57.8416985 L67.7477707,53.9385138 L76.7554989,62.9460722 L62.9436943,76.7578769 L42.6177495,56.4324416 C42.1200849,55.9351168 41.3138004,55.9351168 40.8161359,56.4324416 C40.3186412,56.9301062 40.3186412,57.7365605 40.8161359,58.2340552 L62.0424628,79.4603822 C62.2912951,79.7090446 62.6174098,79.8333758 62.9433546,79.8333758 C63.2692994,79.8333758 63.595414,79.7090446 63.8442463,79.4603822 L79.4576645,63.8469639 C79.9551592,63.3492994 79.9551592,62.542845 79.4576645,62.0453503 L58.2311677,40.8190234 L58.2311677,40.8190234 Z" id="Shape" fill="#9FBFCB"></path>
                            </g>
                        </g>
                    </g>
                </g>
            </g>
        </g>
    </g>
</svg>