<?xml version="1.0" encoding="UTF-8" standalone="no"?>
<svg width="80px" height="80px" viewBox="0 0 80 80" version="1.1" xmlns="http://www.w3.org/2000/svg" xmlns:xlink="http://www.w3.org/1999/xlink">
    <!-- Generator: Sketch 39 (31667) - http://www.bohemiancoding.com/sketch -->
    <title>Group 14</title>
    <desc>Created with Sketch.</desc>
    <defs>
        <linearGradient x1="50%" y1="100%" x2="50%" y2="0%" id="linearGradient-1">
            <stop stop-color="#E8F0F4" stop-opacity="0.1" offset="0%"></stop>
            <stop stop-color="#FFFFFF" offset="100%"></stop>
        </linearGradient>
    </defs>
    <g id="Romantic-Dining" stroke="none" stroke-width="1" fill="none" fill-rule="evenodd">
        <g id="Reservation-Romantic-Dining-Add-ons-Update-1" transform="translate(-787.000000, -265.000000)">
            <g id="Group-7" transform="translate(727.000000, 265.000000)">
                <g id="pencil-(1)" transform="translate(60.000000, 0.000000)">
                    <g id="Capa_1">
                        <g id="Group">
                            <g id="Group-14">
                                <path d="M60.5841189,21.0512102 L55.4797452,26.1555839 C55.230913,26.4042463 54.9047983,26.5285775 54.5788535,26.5285775 C54.2529087,26.5285775 53.9267941,26.4042463 53.6779618,26.1555839 C53.1804671,25.6579193 53.1804671,24.851465 53.6779618,24.3539703 L58.7823355,19.2495966 L54.5788535,15.0461146 L11.9222081,57.7029299 C12.5070064,58.0458599 13.0520594,58.4653928 13.540552,58.9537155 C14.5392781,59.9524416 15.2348195,61.1638217 15.5847134,62.4475584 L48.8742251,29.1580467 C49.3718896,28.6607219 50.1783439,28.6607219 50.6758386,29.1580467 C51.1733333,29.6557113 51.1733333,30.4621656 50.6758386,30.9596603 L17.3861571,64.2493418 C18.6698938,64.5992357 19.8812739,65.2946072 20.88,66.2933333 C21.3683227,66.7818259 21.7880255,67.3267091 22.1307856,67.9115074 L64.7876008,25.2546921 L60.5841189,21.0512102 L60.5841189,21.0512102 Z" id="Shape" fill="url(#linearGradient-1)"></path>
                                <rect id="Rectangle-path" fill="#F8FAFB" transform="translate(62.821512, 17.011969) rotate(-45.000000) translate(-62.821512, -17.011969) " x="60.9305742" y="9.79335434" width="3.78187456" height="14.4372288"></rect>
                                <polygon id="Shape" fill="#9FBFCB" points="5.22734607 72.3043737 3.61613588 76.2175796 7.52917197 74.6063694"></polygon>
                                <path d="M19.0783864,68.0949469 C17.8746497,66.8912102 16.2401699,66.3332484 14.7060722,66.6029724 C14.2970701,66.6749894 13.8783864,66.542845 13.5845435,66.249172 C13.2908705,65.9554989 13.1587261,65.5369851 13.2307431,65.1276433 C13.5004671,63.5937155 12.9426752,61.9590658 11.7387686,60.7553291 C11.3369002,60.3532909 10.8803397,60.0215711 10.3898089,59.7674735 L6.27838641,69.7521868 L10.0816985,73.5553291 L20.066242,69.4440764 C19.8121444,68.9533758 19.4802548,68.4968153 19.0783864,68.0949469 L19.0783864,68.0949469 Z" id="Shape" fill="#FFFFFF"></path>
                                <path d="M71.065138,18.9773248 L76.1695117,13.8727813 C77.659448,12.382845 77.659448,9.95821656 76.1695117,8.46828025 L71.3654352,3.66420382 C69.8753291,2.17426752 67.4508705,2.17426752 65.9607643,3.66420382 L63.5585563,6.06658174 C63.0608917,6.56390658 62.2544374,6.56390658 61.7569427,6.06658174 L59.9556688,7.86785563 L71.065138,18.9773248 L71.065138,18.9773248 Z" id="Shape" fill="#FFFFFF"></path>
                                <path d="M77.9711253,15.6743949 C80.4543524,13.1909979 80.4543524,9.15006369 77.9711253,6.66666667 L73.1670488,1.86259023 C70.6836518,-0.620467091 66.6428875,-0.621146497 64.1591507,1.86259023 L61.7567728,4.26496815 C61.2592781,4.7626327 61.2592781,5.56908705 61.7567728,6.06658174 C62.2544374,6.56390658 63.0608917,6.56390658 63.5583864,6.06658174 L65.9605945,3.66420382 C67.4507006,2.17426752 69.8751592,2.17426752 71.3652654,3.66420382 L76.1693418,8.46828025 C77.6592781,9.95821656 77.6592781,12.382845 76.1693418,13.8727813 L71.0649682,18.9773248 L59.9553291,7.86785563 C59.4576645,7.37053079 58.65138,7.37053079 58.1537155,7.86785563 L53.6794904,12.3420807 C53.6764331,12.345138 40.815966,25.2056051 40.815966,25.2056051 L25.2025478,40.8190234 L8.78029724,57.2412739 C8.64186837,57.393121 8.56016985,57.5189809 8.50326964,57.6570701 L3.59932059,69.5663694 C3.59762208,69.5704459 0.0959660297,78.0747346 0.0959660297,78.0747346 C-0.0997027601,78.5503185 0.00951167728,79.0969002 0.373163482,79.460552 C0.617070064,79.7042887 0.942845011,79.8335456 1.2743949,79.8335456 C1.43762208,79.8335456 1.60220807,79.8021231 1.75915074,79.7377495 L10.2563057,76.238811 C10.2595329,76.2374522 22.1768153,71.3304459 22.1768153,71.3304459 C22.3155839,71.2732059 22.4419533,71.1909979 22.5523567,71.0897665 C22.5870064,71.0581741 39.0150318,54.6309979 39.0150318,54.6309979 L54.6284501,39.0174098 L67.4887473,26.1569427 C67.491465,26.1542251 77.9711253,15.6743949 77.9711253,15.6743949 Z M10.0816985,73.5553291 L6.27838641,69.7521868 L10.3898089,59.7674735 C10.8803397,60.0215711 11.3369002,60.3532909 11.7387686,60.7553291 C12.9426752,61.9590658 13.5004671,63.5937155 13.2307431,65.1276433 C13.1587261,65.5368153 13.2908705,65.9553291 13.5845435,66.249172 C13.8782166,66.542845 14.2969002,66.6749894 14.7060722,66.6029724 C16.2401699,66.3332484 17.8746497,66.8912102 19.0783864,68.0949469 C19.4804246,68.4968153 19.8121444,68.9533758 20.066242,69.4439066 L10.0816985,73.5553291 L10.0816985,73.5553291 Z M20.88,66.2933333 C19.8812739,65.2946072 18.6698938,64.5990658 17.3861571,64.2493418 L50.6756688,30.9598301 C51.1731635,30.4621656 51.1731635,29.6557113 50.6756688,29.1582166 C50.1780042,28.6608917 49.3715499,28.6608917 48.8740552,29.1582166 L15.5845435,62.4475584 C15.2346497,61.1636518 14.5391083,59.9524416 13.5403822,58.9537155 C13.0518896,58.4653928 12.5070064,58.04569 11.9220382,57.7029299 L54.5790234,15.0461146 L58.7825053,19.2495966 L53.6781316,24.3539703 C53.1806369,24.8516348 53.1806369,25.6580892 53.6781316,26.1555839 C53.9269639,26.4042463 54.2530786,26.5285775 54.5790234,26.5285775 C54.9049682,26.5285775 55.2310828,26.4042463 55.4799151,26.1555839 L60.5842887,21.0512102 L64.7879406,25.2546921 L22.1307856,67.9115074 C21.7880255,67.3267091 21.3684926,66.7818259 20.88,66.2933333 L20.88,66.2933333 Z M66.5893843,23.4530786 L56.3806369,13.2443312 L59.0547771,10.5701911 L69.2635244,20.7789384 L66.5893843,23.4530786 L66.5893843,23.4530786 Z M7.52917197,74.6063694 L3.61596603,76.2175796 L5.22734607,72.3043737 L7.52917197,74.6063694 Z" id="Shape" fill="#9FBFCB"></path>
                            </g>
                        </g>
                    </g>
                </g>
            </g>
        </g>
    </g>
</svg>