<?xml version="1.0" encoding="UTF-8" standalone="no"?>
<svg width="64px" height="82px" viewBox="0 0 64 82" version="1.1" xmlns="http://www.w3.org/2000/svg" xmlns:xlink="http://www.w3.org/1999/xlink">
    <!-- Generator: Sketch 39 (31667) - http://www.bohemiancoding.com/sketch -->
    <title>file</title>
    <desc>Created with Sketch.</desc>
    <defs>
        <linearGradient x1="50%" y1="100%" x2="50%" y2="0%" id="linearGradient-1">
            <stop stop-color="#E8F0F4" stop-opacity="0.1" offset="0%"></stop>
            <stop stop-color="#FFFFFF" offset="100%"></stop>
        </linearGradient>
    </defs>
    <g id="Romantic-Dining" stroke="none" stroke-width="1" fill="none" fill-rule="evenodd">
        <g id="Reservation-Romantic-Dining-Add-ons-Update-1" transform="translate(-397.000000, -261.000000)">
            <g id="Group-8" transform="translate(337.000000, 263.000000)">
                <g id="Group-2" transform="translate(61.000000, 0.000000)">
                    <g id="file">
                        <g id="Capa_1">
                            <g id="Group">
                                <g id="Shape">
                                    <path d="M60.9237288,20.7355032 C60.9237288,19.6344862 60.2892823,18.1076185 59.5147499,17.3332442 L43.5869451,1.40869129 C42.8087875,0.630692572 41.2917994,0 40.1759261,0 L2.67153153,0 C1.56583537,0 0.669491525,0.89884314 0.669491525,1.99735637 L0.669491525,75.6478049 C0.669491525,76.7509144 1.56801315,77.6451613 2.67425783,77.6451613 L58.9189625,77.6451613 C60.0261644,77.6451613 60.9237288,76.7435031 60.9237288,75.6515936 L60.9237288,20.7355032 Z" stroke="#9FBFCB" stroke-width="3" fill="url(#linearGradient-1)"></path>
                                    <g transform="translate(12.050847, 17.403226)" fill="#9FBFCB">
                                        <path d="M2.00847458,13.3870968 L35.4830508,13.3870968 C36.2221695,13.3870968 36.8220339,12.7886935 36.8220339,12.0483871 C36.8220339,11.3080806 36.2221695,10.7096774 35.4830508,10.7096774 L2.00847458,10.7096774 C1.26935593,10.7096774 0.669491525,11.3080806 0.669491525,12.0483871 C0.669491525,12.7886935 1.26935593,13.3870968 2.00847458,13.3870968 L2.00847458,13.3870968 Z"></path>
                                        <path d="M2.00847458,2.67741935 L15.3983051,2.67741935 C16.1374237,2.67741935 16.7372881,2.07901613 16.7372881,1.33870968 C16.7372881,0.598403226 16.1374237,0 15.3983051,0 L2.00847458,0 C1.26935593,0 0.669491525,0.598403226 0.669491525,1.33870968 C0.669491525,2.07901613 1.26935593,2.67741935 2.00847458,2.67741935 L2.00847458,2.67741935 Z"></path>
                                        <path d="M35.4830508,21.4193548 L2.00847458,21.4193548 C1.26935593,21.4193548 0.669491525,22.0177581 0.669491525,22.7580645 C0.669491525,23.498371 1.26935593,24.0967742 2.00847458,24.0967742 L35.4830508,24.0967742 C36.2221695,24.0967742 36.8220339,23.498371 36.8220339,22.7580645 C36.8220339,22.0177581 36.2221695,21.4193548 35.4830508,21.4193548 L35.4830508,21.4193548 Z"></path>
                                        <path d="M35.4830508,32.1290323 L2.00847458,32.1290323 C1.26935593,32.1290323 0.669491525,32.7274355 0.669491525,33.4677419 C0.669491525,34.2080484 1.26935593,34.8064516 2.00847458,34.8064516 L35.4830508,34.8064516 C36.2221695,34.8064516 36.8220339,34.2080484 36.8220339,33.4677419 C36.8220339,32.7274355 36.2221695,32.1290323 35.4830508,32.1290323 L35.4830508,32.1290323 Z"></path>
                                        <path d="M35.4830508,42.8387097 L2.00847458,42.8387097 C1.26935593,42.8387097 0.669491525,43.4371129 0.669491525,44.1774194 C0.669491525,44.9177258 1.26935593,45.516129 2.00847458,45.516129 L35.4830508,45.516129 C36.2221695,45.516129 36.8220339,44.9177258 36.8220339,44.1774194 C36.8220339,43.4371129 36.2221695,42.8387097 35.4830508,42.8387097 L35.4830508,42.8387097 Z"></path>
                                    </g>
                                    <path d="M42.1779661,0 L42.1779661,16.7362201 C42.1779661,17.8439461 43.0821132,18.7419355 44.1840911,18.7419355 L60.9237288,18.7419355 L42.1779661,0 Z" fill="#9FBFCB"></path>
                                </g>
                            </g>
                        </g>
                    </g>
                </g>
            </g>
        </g>
    </g>
</svg>