<?xml version="1.0" encoding="UTF-8" standalone="no"?>
<svg width="74px" height="74px" viewBox="0 0 74 74" version="1.1" xmlns="http://www.w3.org/2000/svg" xmlns:xlink="http://www.w3.org/1999/xlink">
    <!-- Generator: Sketch 39 (31667) - http://www.bohemiancoding.com/sketch -->
    <title>Group 16</title>
    <desc>Created with Sketch.</desc>
    <defs>
        <linearGradient x1="50%" y1="100%" x2="50%" y2="0%" id="linearGradient-1">
            <stop stop-color="#E8F0F4" stop-opacity="0.1" offset="0%"></stop>
            <stop stop-color="#FFFFFF" offset="100%"></stop>
        </linearGradient>
    </defs>
    <g id="Romantic-Dining" stroke="none" stroke-width="1" fill="none" fill-rule="evenodd">
        <g id="Reservation-Romantic-Dining-Add-ons-Update-1" transform="translate(-1176.000000, -266.000000)">
            <g id="Group-9" transform="translate(1117.000000, 268.000000)">
                <g id="browser" transform="translate(61.000000, 0.000000)">
                    <g id="Capa_1">
                        <g id="Group-16">
                            <rect id="Rectangle-path" stroke="#9FBFCB" stroke-width="3" fill="url(#linearGradient-1)" x="0" y="0" width="70" height="70" rx="2"></rect>
                            <rect id="Rectangle-path" fill="#9FBFCB" x="0" y="0" width="70" height="14.4827586"></rect>
                            <circle id="Oval" fill="#FFFFFF" cx="7.24137931" cy="7.24137931" r="3.62068966"></circle>
                            <circle id="Oval" fill="#FFFFFF" cx="18.1034483" cy="7.24137931" r="3.62068966"></circle>
                            <circle id="Oval" fill="#FFFFFF" cx="28.9655172" cy="7.24137931" r="3.62068966"></circle>
                            <rect id="Rectangle-path" stroke-opacity="0.2" stroke="#9FBFCB" fill="url(#linearGradient-1)" x="6.03448276" y="20.5172414" width="57.9310345" height="43.4482759" rx="2"></rect>
                            <g id="Group" transform="translate(13.275862, 33.793103)" fill="#9FBFCB">
                                <path d="M1.20689655,9.65517241 L39.8275862,9.65517241 C40.4937931,9.65517241 41.0344828,9.11448276 41.0344828,8.44827586 C41.0344828,7.78206897 40.4937931,7.24137931 39.8275862,7.24137931 L1.20689655,7.24137931 C0.540689655,7.24137931 0,7.78206897 0,8.44827586 C0,9.11448276 0.540689655,9.65517241 1.20689655,9.65517241 L1.20689655,9.65517241 Z" id="Shape"></path>
                                <path d="M39.8275862,14.4827586 L1.20689655,14.4827586 C0.540689655,14.4827586 0,15.0234483 0,15.6896552 C0,16.3558621 0.540689655,16.8965517 1.20689655,16.8965517 L39.8275862,16.8965517 C40.4937931,16.8965517 41.0344828,16.3558621 41.0344828,15.6896552 C41.0344828,15.0234483 40.4937931,14.4827586 39.8275862,14.4827586 L39.8275862,14.4827586 Z" id="Shape"></path>
                                <path d="M1.20689655,2.4137931 L12.0689655,2.4137931 C12.7351724,2.4137931 13.2758621,1.87310345 13.2758621,1.20689655 C13.2758621,0.540689655 12.7351724,0 12.0689655,0 L1.20689655,0 C0.540689655,0 0,0.540689655 0,1.20689655 C0,1.87310345 0.540689655,2.4137931 1.20689655,2.4137931 L1.20689655,2.4137931 Z" id="Shape"></path>
                                <path d="M21.7241379,2.4137931 L25.3448276,2.4137931 C26.0110345,2.4137931 26.5517241,1.87310345 26.5517241,1.20689655 C26.5517241,0.540689655 26.0110345,0 25.3448276,0 L21.7241379,0 C21.057931,0 20.5172414,0.540689655 20.5172414,1.20689655 C20.5172414,1.87310345 21.057931,2.4137931 21.7241379,2.4137931 L21.7241379,2.4137931 Z" id="Shape"></path>
                                <path d="M16.8965517,2.4137931 C17.2103448,2.4137931 17.5241379,2.28103448 17.7534483,2.0637931 C17.9706897,1.83448276 18.1034483,1.52068966 18.1034483,1.20689655 C18.1034483,0.893103448 17.9706897,0.579310345 17.7534483,0.35 C17.2948276,-0.0965517241 16.4982759,-0.0965517241 16.0396552,0.35 C15.8224138,0.579310345 15.6896552,0.893103448 15.6896552,1.20689655 C15.6896552,1.52068966 15.8224138,1.83448276 16.0396552,2.0637931 C16.2689655,2.28103448 16.5827586,2.4137931 16.8965517,2.4137931 L16.8965517,2.4137931 Z" id="Shape"></path>
                            </g>
                        </g>
                    </g>
                </g>
            </g>
        </g>
    </g>
</svg>