<?xml version="1.0" encoding="UTF-8" standalone="no"?>
<svg width="16px" height="12px" viewBox="0 0 16 12" version="1.1" xmlns="http://www.w3.org/2000/svg" xmlns:xlink="http://www.w3.org/1999/xlink">
    <!-- Generator: sketchtool 3.7.1 (28215) - http://www.bohemiancoding.com/sketch -->
    <title>GB</title>
    <desc>Created with sketchtool.</desc>
    <defs>
        <rect id="path-1" x="0" y="0" width="14" height="10" rx="2"></rect>
        <rect id="path-3" x="0.333333333" y="0.333333333" width="13.3333333" height="9.33333333" rx="1"></rect>
    </defs>
    <g id="Wedding-Landing-Page" stroke="none" stroke-width="1" fill="none" fill-rule="evenodd">
        <g id="Wedding-Add-Media-(Video)" transform="translate(-254.000000, -372.000000)">
            <g id="GB" transform="translate(255.000000, 373.000000)">
                <mask id="mask-2" fill="white">
                    <use xlink:href="#path-1"></use>
                </mask>
                <use id="background" fill="#22438B" xlink:href="#path-1"></use>
                <polygon id="band" fill="#FFFFFF" mask="url(#mask-2)" points="1.99999998 0.666666641 0.649088533 0.684244784 0.666666682 2 11.9878406 9.35205631 13.3458521 9.32737874 13.3211746 8.01872339"></polygon>
                <polygon id="band" fill="#C7152A" mask="url(#mask-2)" points="1.33333335 0.666666678 0.666666644 1.3333333 12.6666663 9.33333304 13.3333338 8.66666696"></polygon>
                <path d="M12,0.666666675 L13.3333334,0.666666662 L13.3333334,1.99999998 C13.3333334,1.99999998 5.50044169,6.93080819 2.01215879,9.35205669 C1.96974911,9.38149364 0.68020109,9.35417538 0.68020109,9.35417538 L0.576533363,8.08515262 L12,0.666666675 L12,0.666666675 Z" id="band" fill="#FFFFFF" mask="url(#mask-2)"></path>
                <polygon id="band" fill="#C7152A" mask="url(#mask-2)" points="12.6952362 0.648113388 13.3333333 1.33333333 1.33333313 9.33333348 0.666666673 8.66666666"></polygon>
                <polygon id="cross" fill="#FFFFFF" mask="url(#mask-2)" points="5.33333333 0.666666667 8.66666667 0.666666667 8.66666667 3.33333333 13.3333333 3.33333333 13.3333333 6.66666667 8.66666667 6.66666667 8.66666667 9.33333333 5.33333333 9.33333333 5.33333333 6.66666667 0.666666667 6.66666667 0.666666667 3.33333333 5.33333333 3.33333333"></polygon>
                <polygon id="cross" fill="#C7152A" mask="url(#mask-2)" points="6 0.666666667 8 0.666666667 8 4 13.3333333 4 13.3333333 6 8 6 8 9.33333333 6 9.33333333 6 6 0.666666667 6 0.666666667 4 6 4"></polygon>
                <mask id="mask-4" fill="white">
                    <use xlink:href="#path-3"></use>
                </mask>
                <use id="overlay" stroke-opacity="0.156646286" stroke="#2F343A" xlink:href="#path-3"></use>
            </g>
        </g>
    </g>
</svg>