<?xml version="1.0" encoding="UTF-8" standalone="no"?>
<svg width="14px" height="10px" viewBox="0 0 14 10" version="1.1" xmlns="http://www.w3.org/2000/svg" xmlns:xlink="http://www.w3.org/1999/xlink">
    <!-- Generator: Sketch 3.8.3 (29802) - http://www.bohemiancoding.com/sketch -->
    <title>KR</title>
    <desc>Created with Sketch.</desc>
    <defs>
        <rect id="path-1" x="0" y="0" width="14" height="10" rx="1.33333333"></rect>
        <filter x="-50%" y="-50%" width="200%" height="200%" filterUnits="objectBoundingBox" id="filter-3">
            <feMorphology radius="1" operator="erode" in="SourceAlpha" result="shadowSpreadInner1"></feMorphology>
            <feOffset dx="0" dy="0" in="shadowSpreadInner1" result="shadowOffsetInner1"></feOffset>
            <feComposite in="shadowOffsetInner1" in2="SourceAlpha" operator="arithmetic" k2="-1" k3="1" result="shadowInnerInner1"></feComposite>
            <feColorMatrix values="0 0 0 0 0   0 0 0 0 0   0 0 0 0 0  0 0 0 0.121659873 0" type="matrix" in="shadowInnerInner1"></feColorMatrix>
        </filter>
        <rect id="path-4" x="0.333333333" y="0.333333333" width="13.3333333" height="9.33333333" rx="0.666666667"></rect>
    </defs>
    <g id="Wedding-Landing-Page" stroke="none" stroke-width="1" fill="none" fill-rule="evenodd">
        <g id="Wedding-Add-Media-(Video)" transform="translate(-484.000000, -618.000000)">
            <g id="KR" transform="translate(484.000000, 618.000000)">
                <mask id="mask-2" fill="white">
                    <use xlink:href="#path-1"></use>
                </mask>
                <g id="background">
                    <use fill="#FFFFFF" fill-rule="evenodd" xlink:href="#path-1"></use>
                    <use fill="black" fill-opacity="1" filter="url(#filter-3)" xlink:href="#path-1"></use>
                </g>
                <path d="M9.33333333,5 C9.33333333,6.28866442 8.28866442,7.33333333 7,7.33333333 C5.71133558,7.33333333 4.66666667,6.28866442 4.66666667,5 C4.66666667,4.25323813 6.23374744,3.93921366 7.55170895,4.0579266 C7.69180741,4.02042327 7.84272363,4 8,4 C8.73637967,4 9.33333333,4.44771525 9.33333333,5 L9.33333333,5 Z" id="circle" fill="#0048AB" mask="url(#mask-2)"></path>
                <path d="M6.4120355,5 L6.66666667,5 C6.66666667,4.44771525 7.26362033,4 8,4 C8.73637967,4 9.33333333,4.44771525 9.33333333,5 C9.33333333,3.71133558 8.28866442,2.66666667 7,2.66666667 C6.06878454,2.66666667 5.26497879,3.21217244 4.89070757,4.00105915 C4.75391392,4.05031151 4.66666667,4.14874684 4.66666667,4.33333333 C4.66666667,4.42422674 4.67879331,4.51228782 4.70151696,4.59598694 C4.67860967,4.72721604 4.66666667,4.8622133 4.66666667,5 L4.92129783,5 C5.10440468,5.20458312 5.37050006,5.33333333 5.66666667,5.33333333 C5.96283327,5.33333333 6.22892865,5.20458312 6.4120355,5 L6.4120355,5 Z" id="circle" fill="#CD0027" mask="url(#mask-2)"></path>
                <path d="M10,3.33333333 L11.3333333,3.33333333 L10,2 L9.33333333,2 L10,3.33333333 L10,3.33333333 Z M4,3.33333333 L2.66666667,3.33333333 L4,2 L4.66666667,2 L4,3.33333333 L4,3.33333333 Z M10,6.66666667 L11.3333333,6.66666667 L10,8 L9.33333333,8 L10,6.66666667 L10,6.66666667 Z M4,6.66666667 L2.66666667,6.66666667 L4,8 L4.66666667,8 L4,6.66666667 L4,6.66666667 Z" id="angles" fill="#252526" mask="url(#mask-2)"></path>
                <mask id="mask-5" fill="white">
                    <use xlink:href="#path-4"></use>
                </mask>
                <use id="overlay" stroke-opacity="0.156646286" stroke="#2F343A" stroke-width="0.666666667" xlink:href="#path-4"></use>
            </g>
        </g>
    </g>
</svg>