<?xml version="1.0" encoding="UTF-8" standalone="no"?>
<svg width="16px" height="12px" viewBox="0 0 16 12" version="1.1" xmlns="http://www.w3.org/2000/svg" xmlns:xlink="http://www.w3.org/1999/xlink">
    <!-- Generator: sketchtool 3.7.1 (28215) - http://www.bohemiancoding.com/sketch -->
    <title>CN</title>
    <desc>Created with sketchtool.</desc>
    <defs>
        <rect id="path-1" x="0" y="0" width="14" height="10" rx="2"></rect>
        <rect id="path-3" x="0.333333333" y="0.333333333" width="13.3333333" height="9.33333333" rx="1"></rect>
    </defs>
    <g id="Wedding-Landing-Page" stroke="none" stroke-width="1" fill="none" fill-rule="evenodd">
        <g id="Wedding-Add-Media-(Video)" transform="translate(-254.000000, -703.000000)">
            <g id="CN" transform="translate(255.000000, 704.000000)">
                <mask id="mask-2" fill="white">
                    <use xlink:href="#path-1"></use>
                </mask>
                <use id="background" fill="#CF2338" xlink:href="#path-1"></use>
                <path d="M1.33333333,3.33333333 L3.38461538,4.56410256 L2.66666667,6.66666667 L4.33333333,5.11111111 L6,6.66666667 L5.28205128,4.56410256 L7.33333333,3.33333333 L5,3.33333333 L3.66666667,3.33333333 L1.33333333,3.33333333 Z M5.33333333,3.33333333 L3.33333333,3.33333333 L4.33333333,1.33333333 L5.33333333,3.33333333 Z" id="star" fill="#FFD128" mask="url(#mask-2)"></path>
                <path d="M8,2 L8,2.66666667 L8.66666667,2.66666667 L8.66666667,2 L8,2 L8,2 Z M8.66666667,3.33333333 L8.66666667,4 L9.33333333,4 L9.33333333,3.33333333 L8.66666667,3.33333333 L8.66666667,3.33333333 Z M8.66666667,4.66666667 L8.66666667,5.33333333 L9.33333333,5.33333333 L9.33333333,4.66666667 L8.66666667,4.66666667 L8.66666667,4.66666667 Z M8,6 L8,6.66666667 L8.66666667,6.66666667 L8.66666667,6 L8,6 L8,6 Z" id="circles" fill="#F8B92A" mask="url(#mask-2)"></path>
                <mask id="mask-4" fill="white">
                    <use xlink:href="#path-3"></use>
                </mask>
                <use id="overlay" stroke-opacity="0.156646286" stroke="#2F343A" xlink:href="#path-3"></use>
            </g>
        </g>
    </g>
</svg>